#Comment line ignore any data following # character 
#Hierarchical Translation and Rotation (.htr) file 
[Header]	
#Header keywords are followed by a single value 
FileType HTR		#Single word string
DataType HTRS		#Translation followed by rotation and scale data
FileVersion 1		#integer
NumSegments 84		#integer
NumFrames 2		#integer
DataFrameRate 30		#integer, data frame rate in this file
EulerRotationOrder ZYX
CalibrationUnits mm
RotationUnits Degrees
GlobalAxisofGravity Y
BoneLengthAxis Y
ScaleFactor 1.00
[SegmentNames&Hierarchy]
#CHILD	PARENT
MASTER GLOBAL
root MASTER
chest root
L_mid_tent01 root
R_mid_tent01 root
spine01 root
Bip01_Neck chest
L_humerus chest
R_humerus chest
weapon_bone chest
Bip01_Head Bip01_Neck
eye_left_bone Bip01_Head
eye_right_bone Bip01_Head
L_forearm L_humerus
L_front_hand L_forearm
L_weapon_bone L_forearm
L_front_hand01_01 L_front_hand
L_front_hand02_01 L_front_hand
L_front_hand03_01 L_front_hand
L_front_hand01_02 L_front_hand01_01
L_front_hand02_02 L_front_hand02_01
L_front_hand03_02 L_front_hand03_01
R_forearm R_humerus
R_front_hand R_forearm
R_weapon_bone R_forearm
R_front_hand01_01 R_front_hand
R_front_hand02_01 R_front_hand
R_front_hand03_01 R_front_hand
R_front_hand01_02 R_front_hand01_01
R_front_hand02_02 R_front_hand02_01
R_front_hand03_02 R_front_hand03_01
null_rope01_connect L_mid_tent01
Rope1_Seg01 null_rope01_connect
Rope1_Seg02 Rope1_Seg01
Rope1_Seg03 Rope1_Seg02
Rope1_Seg04 Rope1_Seg03
Rope1_Seg05 Rope1_Seg04
Rope1_Seg06 Rope1_Seg05
Rope1_Seg07 Rope1_Seg06
Rope1_Seg09 Rope1_Seg07
L_mid_hand01 Rope1_Seg09
L_mid_hand02 Rope1_Seg09
L_mid_hand03 Rope1_Seg09
null_rope02_connect R_mid_tent01
Rope2_Seg01 null_rope02_connect
Rope2_Seg02 Rope2_Seg01
Rope2_Seg03 Rope2_Seg02
Rope2_Seg04 Rope2_Seg03
Rope2_Seg05 Rope2_Seg04
Rope2_Seg06 Rope2_Seg05
Rope2_Seg07 Rope2_Seg06
Rope2_Seg09 Rope2_Seg07
R_mid_hand01 Rope2_Seg09
R_mid_hand02 Rope2_Seg09
R_mid_hand03 Rope2_Seg09
spine02 spine01
spine03 spine02
pelvis spine03
null_rope03_connect pelvis
null_rope04_connect pelvis
Rope3_Seg01 null_rope03_connect
Rope3_Seg02 Rope3_Seg01
Rope3_Seg03 Rope3_Seg02
Rope3_Seg04 Rope3_Seg03
Rope3_Seg05 Rope3_Seg04
Rope3_Seg06 Rope3_Seg05
Rope3_Seg07 Rope3_Seg06
Rope3_Seg08 Rope3_Seg07
Rope3_Seg09 Rope3_Seg08
R_rear_hand01 Rope3_Seg09
R_rear_hand02 Rope3_Seg09
R_rear_hand03 Rope3_Seg09
Rope4_Seg01 null_rope04_connect
Rope4_Seg02 Rope4_Seg01
Rope4_Seg03 Rope4_Seg02
Rope4_Seg04 Rope4_Seg03
Rope4_Seg05 Rope4_Seg04
Rope4_Seg06 Rope4_Seg05
Rope4_Seg07 Rope4_Seg06
Rope4_Seg08 Rope4_Seg07
Rope4_Seg09 Rope4_Seg08
L_rear_hand01 Rope4_Seg09
L_rear_hand02 Rope4_Seg09
L_rear_hand03 Rope4_Seg09
[BasePosition]
#SegmentName Tx, Ty, Tz, Rx, Ry, Rz, BoneLength
MASTER 0.000000 0.000000 0.000000 -90.000000 0.000000 0.000000 10.000000 
root 0.000000 0.000000 0.000000 0.000000 0.000000 0.000000 10.000000 
chest 0.000000 0.000000 0.000000 0.000000 0.000000 0.000000 10.000000 
L_mid_tent01 0.000000 0.000000 0.000000 0.000000 0.000000 0.000000 10.000000 
R_mid_tent01 0.000000 0.000000 0.000000 0.000000 0.000000 0.000000 10.000000 
spine01 0.000000 0.000000 0.000000 0.000000 0.000000 0.000000 10.000000 
Bip01_Neck 0.000000 0.000000 0.000000 0.000000 0.000000 0.000000 10.000000 
L_humerus 0.000000 0.000000 0.000000 0.000000 0.000000 0.000000 10.000000 
R_humerus 0.000000 0.000000 0.000000 0.000000 0.000000 0.000000 10.000000 
weapon_bone 0.000000 0.000000 0.000000 0.000000 0.000000 0.000000 10.000000 
Bip01_Head 0.000000 0.000000 0.000000 0.000000 0.000000 0.000000 10.000000 
eye_left_bone 0.000000 0.000000 0.000000 0.000000 0.000000 0.000000 10.000000 
eye_right_bone 0.000000 0.000000 0.000000 0.000000 0.000000 0.000000 10.000000 
L_forearm 0.000000 0.000000 0.000000 0.000000 0.000000 0.000000 10.000000 
L_front_hand 0.000000 0.000000 0.000000 0.000000 0.000000 0.000000 10.000000 
L_weapon_bone 0.000000 0.000000 0.000000 0.000000 0.000000 0.000000 10.000000 
L_front_hand01_01 0.000000 0.000000 0.000000 0.000000 0.000000 0.000000 10.000000 
L_front_hand02_01 0.000000 0.000000 0.000000 0.000000 0.000000 0.000000 10.000000 
L_front_hand03_01 0.000000 0.000000 0.000000 0.000000 0.000000 0.000000 10.000000 
L_front_hand01_02 0.000000 0.000000 0.000000 0.000000 0.000000 0.000000 10.000000 
L_front_hand02_02 0.000000 0.000000 0.000000 0.000000 0.000000 0.000000 10.000000 
L_front_hand03_02 0.000000 0.000000 0.000000 0.000000 0.000000 0.000000 10.000000 
R_forearm 0.000000 0.000000 0.000000 0.000000 0.000000 0.000000 10.000000 
R_front_hand 0.000000 0.000000 0.000000 0.000000 0.000000 0.000000 10.000000 
R_weapon_bone 0.000000 0.000000 0.000000 0.000000 0.000000 0.000000 10.000000 
R_front_hand01_01 0.000000 0.000000 0.000000 0.000000 0.000000 0.000000 10.000000 
R_front_hand02_01 0.000000 0.000000 0.000000 0.000000 0.000000 0.000000 10.000000 
R_front_hand03_01 0.000000 0.000000 0.000000 0.000000 0.000000 0.000000 10.000000 
R_front_hand01_02 0.000000 0.000000 0.000000 0.000000 0.000000 0.000000 10.000000 
R_front_hand02_02 0.000000 0.000000 0.000000 0.000000 0.000000 0.000000 10.000000 
R_front_hand03_02 0.000000 0.000000 0.000000 0.000000 0.000000 0.000000 10.000000 
null_rope01_connect 0.000000 0.000000 0.000000 0.000000 0.000000 0.000000 10.000000 
Rope1_Seg01 0.000000 0.000000 0.000000 0.000000 0.000000 0.000000 10.000000 
Rope1_Seg02 0.000000 0.000000 0.000000 0.000000 0.000000 0.000000 10.000000 
Rope1_Seg03 0.000000 0.000000 0.000000 0.000000 0.000000 0.000000 10.000000 
Rope1_Seg04 0.000000 0.000000 0.000000 0.000000 0.000000 0.000000 10.000000 
Rope1_Seg05 0.000000 0.000000 0.000000 0.000000 0.000000 0.000000 10.000000 
Rope1_Seg06 0.000000 0.000000 0.000000 0.000000 0.000000 0.000000 10.000000 
Rope1_Seg07 0.000000 0.000000 0.000000 0.000000 0.000000 0.000000 10.000000 
Rope1_Seg09 0.000000 0.000000 0.000000 0.000000 0.000000 0.000000 10.000000 
L_mid_hand01 0.000000 0.000000 0.000000 0.000000 0.000000 0.000000 10.000000 
L_mid_hand02 0.000000 0.000000 0.000000 0.000000 0.000000 0.000000 10.000000 
L_mid_hand03 0.000000 0.000000 0.000000 0.000000 0.000000 0.000000 10.000000 
null_rope02_connect 0.000000 0.000000 0.000000 0.000000 0.000000 0.000000 10.000000 
Rope2_Seg01 0.000000 0.000000 0.000000 0.000000 0.000000 0.000000 10.000000 
Rope2_Seg02 0.000000 0.000000 0.000000 0.000000 0.000000 0.000000 10.000000 
Rope2_Seg03 0.000000 0.000000 0.000000 0.000000 0.000000 0.000000 10.000000 
Rope2_Seg04 0.000000 0.000000 0.000000 0.000000 0.000000 0.000000 10.000000 
Rope2_Seg05 0.000000 0.000000 0.000000 0.000000 0.000000 0.000000 10.000000 
Rope2_Seg06 0.000000 0.000000 0.000000 0.000000 0.000000 0.000000 10.000000 
Rope2_Seg07 0.000000 0.000000 0.000000 0.000000 0.000000 0.000000 10.000000 
Rope2_Seg09 0.000000 0.000000 0.000000 0.000000 0.000000 0.000000 10.000000 
R_mid_hand01 0.000000 0.000000 0.000000 0.000000 0.000000 0.000000 10.000000 
R_mid_hand02 0.000000 0.000000 0.000000 0.000000 0.000000 0.000000 10.000000 
R_mid_hand03 0.000000 0.000000 0.000000 0.000000 0.000000 0.000000 10.000000 
spine02 0.000000 0.000000 0.000000 0.000000 0.000000 0.000000 10.000000 
spine03 0.000000 0.000000 0.000000 0.000000 0.000000 0.000000 10.000000 
pelvis 0.000000 0.000000 0.000000 0.000000 0.000000 0.000000 10.000000 
null_rope03_connect 0.000000 0.000000 0.000000 0.000000 0.000000 0.000000 10.000000 
null_rope04_connect 0.000000 0.000000 0.000000 0.000000 0.000000 0.000000 10.000000 
Rope3_Seg01 0.000000 0.000000 0.000000 0.000000 0.000000 0.000000 10.000000 
Rope3_Seg02 0.000000 0.000000 0.000000 0.000000 0.000000 0.000000 10.000000 
Rope3_Seg03 0.000000 0.000000 0.000000 0.000000 0.000000 0.000000 10.000000 
Rope3_Seg04 0.000000 0.000000 0.000000 0.000000 0.000000 0.000000 10.000000 
Rope3_Seg05 0.000000 0.000000 0.000000 0.000000 0.000000 0.000000 10.000000 
Rope3_Seg06 0.000000 0.000000 0.000000 0.000000 0.000000 0.000000 10.000000 
Rope3_Seg07 0.000000 0.000000 0.000000 0.000000 0.000000 0.000000 10.000000 
Rope3_Seg08 0.000000 0.000000 0.000000 0.000000 0.000000 0.000000 10.000000 
Rope3_Seg09 0.000000 0.000000 0.000000 0.000000 0.000000 0.000000 10.000000 
R_rear_hand01 0.000000 0.000000 0.000000 0.000000 0.000000 0.000000 10.000000 
R_rear_hand02 0.000000 0.000000 0.000000 0.000000 0.000000 0.000000 10.000000 
R_rear_hand03 0.000000 0.000000 0.000000 0.000000 0.000000 0.000000 10.000000 
Rope4_Seg01 0.000000 0.000000 0.000000 0.000000 0.000000 0.000000 10.000000 
Rope4_Seg02 0.000000 0.000000 0.000000 0.000000 0.000000 0.000000 10.000000 
Rope4_Seg03 0.000000 0.000000 0.000000 0.000000 0.000000 0.000000 10.000000 
Rope4_Seg04 0.000000 0.000000 0.000000 0.000000 0.000000 0.000000 10.000000 
Rope4_Seg05 0.000000 0.000000 0.000000 0.000000 0.000000 0.000000 10.000000 
Rope4_Seg06 0.000000 0.000000 0.000000 0.000000 0.000000 0.000000 10.000000 
Rope4_Seg07 0.000000 0.000000 0.000000 0.000000 0.000000 0.000000 10.000000 
Rope4_Seg08 0.000000 0.000000 0.000000 0.000000 0.000000 0.000000 10.000000 
Rope4_Seg09 0.000000 0.000000 0.000000 0.000000 0.000000 0.000000 10.000000 
L_rear_hand01 0.000000 0.000000 0.000000 0.000000 0.000000 0.000000 10.000000 
L_rear_hand02 0.000000 0.000000 0.000000 0.000000 0.000000 0.000000 10.000000 
L_rear_hand03 0.000000 0.000000 0.000000 0.000000 0.000000 0.000000 10.000000 
#Beginning of Data. Separated by tabs
#Fr	Tx	Ty	Tz	Rx	Ry	Rz	SF
[MASTER]
16 -0.000288 1886.626343 2881.571289 0.001660 0.001660 0.001660 3444.243408
17 -0.000317 2062.795898 3123.279297 0.001660 0.001660 0.001660 3742.993652
[root]
16 -37.201057 -21.632156 1458.079956 -84.837669 9.655378 -93.078346 1458.714722
17 -37.704235 -42.164913 1490.718018 -86.045563 7.420429 -92.984650 1491.790771
[chest]
16 -84.512650 -34.090519 0.000000 -1.478911 0.539653 -163.350754 91.129311
17 -84.512650 -34.090519 0.000000 -1.519041 0.615716 -165.119492 91.129311
[L_mid_tent01]
16 27.299030 22.179049 -249.918671 -2.080864 22.356098 71.258980 252.381638
17 27.299025 22.179045 -249.918671 -6.151063 23.187571 63.132046 252.381638
[R_mid_tent01]
16 23.228794 24.509907 226.238495 157.469788 -29.083860 90.018829 228.744751
17 23.228794 24.509907 226.238495 158.150635 -35.152382 89.047272 228.744751
[spine01]
16 -0.361383 -0.195265 0.000000 0.002110 0.001028 38.062359 0.410763
17 -0.361383 -0.195265 0.000000 0.002110 0.001029 38.010052 0.410763
[Bip01_Neck]
16 165.484543 71.581718 0.000119 176.643677 -1.657967 43.431911 180.302734
17 165.484543 71.581718 0.000119 176.643677 -1.657967 43.431911 180.302734
[L_humerus]
16 -13.983130 -135.272980 -120.471481 172.400955 18.651447 -124.361938 181.680161
17 -13.983130 -135.272980 -120.471481 172.935898 16.366144 -124.586967 181.680161
[R_humerus]
16 -13.983309 -135.273102 125.287651 -169.557922 -13.692721 -124.395889 184.909012
17 -13.983309 -135.273102 125.287651 -170.045212 -11.301053 -124.816231 184.909012
[weapon_bone]
16 235.964890 -300.705902 0.000000 0.000000 -89.951546 -128.212341 382.234833
17 235.964890 -300.705902 0.000000 0.000000 -89.951546 -128.212341 382.234833
[Bip01_Head]
16 213.657822 185.121155 19.451347 5.019674 -4.080916 -32.448521 283.368774
17 213.645004 185.156097 18.999632 6.096891 -6.312126 -11.184093 283.351288
[eye_left_bone]
16 -24.626970 125.451866 -64.772606 0.000000 -90.000000 -99.840431 143.318359
17 -24.626970 125.451866 -64.772606 0.000000 -90.000000 -99.840431 143.318359
[eye_right_bone]
16 -24.626970 125.451866 64.327362 0.000000 -89.965736 80.156380 143.117676
17 -24.626970 125.451866 64.327362 0.000000 -89.980217 80.156387 143.117676
[L_forearm]
16 322.776093 0.000000 -0.000119 0.000431 -0.002307 -111.173744 322.776093
17 322.776093 0.000000 -0.000119 0.000430 -0.002307 -111.131775 322.776093
[L_front_hand]
16 241.149185 -0.042021 -3.300071 -178.667953 -1.835447 -27.422350 241.171753
17 241.149185 -0.042021 -3.300071 -178.667953 -1.835447 -27.422342 241.171753
[L_weapon_bone]
16 156.183838 0.000000 0.000000 0.000014 0.000007 0.000001 156.183838
17 156.183838 0.000000 0.000000 0.000014 0.000007 0.000001 156.183838
[L_front_hand01_01]
16 86.095154 20.947098 -0.655860 -0.280373 -0.529283 65.613800 88.609184
17 86.095154 20.947098 -0.655860 -0.282467 -0.528169 66.067474 88.609184
[L_front_hand02_01]
16 86.935165 -11.437475 24.513514 141.458649 -54.658344 -46.027485 91.046425
17 86.935165 -11.437475 24.513514 141.960785 -54.937954 -46.642345 91.046425
[L_front_hand03_01]
16 86.637497 -14.123976 -20.424902 -141.832764 52.885189 -48.080185 90.126129
17 86.637497 -14.123976 -20.424902 -142.303543 53.163303 -48.671032 90.126129
[L_front_hand01_02]
16 71.020905 -0.000179 0.000030 0.000315 -0.002326 -105.400543 71.020905
17 71.020905 -0.000179 0.000030 0.000315 -0.002326 -105.421257 71.020905
[L_front_hand02_02]
16 71.020927 -0.000119 0.000060 0.000315 -0.002326 -105.400543 71.020927
17 71.020927 -0.000119 0.000060 0.000315 -0.002326 -105.421257 71.020927
[L_front_hand03_02]
16 71.020905 -0.000060 0.000060 0.000315 -0.002326 -105.400543 71.020905
17 71.020905 -0.000060 0.000060 0.000315 -0.002326 -105.421257 71.020905
[R_forearm]
16 322.776428 -0.000060 0.000030 0.201070 0.068279 -109.837257 322.776428
17 322.776428 -0.000060 0.000030 0.201098 0.068194 -109.788902 322.776428
[R_front_hand]
16 238.847015 -0.006795 2.210259 -2.635298 -10.645461 -26.312506 238.857239
17 238.847015 -0.006795 2.210259 -2.635298 -10.645461 -26.312506 238.857239
[R_weapon_bone]
16 155.664093 0.002503 -0.000030 0.003487 0.001180 -90.988930 155.664078
17 155.664093 0.002503 -0.000030 0.003487 0.001180 -90.988930 155.664078
[R_front_hand01_01]
16 87.624611 14.231146 22.918642 -138.672287 -52.939835 42.677601 91.683487
17 87.624611 14.231146 22.918642 -139.271561 -53.333107 43.426708 91.683487
[R_front_hand02_01]
16 89.356956 14.367283 -19.491137 139.502045 51.377892 45.363930 92.579636
17 89.356956 14.367283 -19.491137 140.080994 51.767307 46.104946 92.579636
[R_front_hand03_01]
16 87.286232 -22.307278 -0.143439 0.064897 -0.451663 -63.182877 90.091743
17 87.286232 -22.307278 -0.143439 0.071479 -0.448702 -63.787704 90.091743
[R_front_hand01_02]
16 71.020905 0.000060 0.000119 0.002323 -0.000334 106.381714 71.020905
17 71.020905 0.000060 0.000119 0.002323 -0.000334 106.381714 71.020905
[R_front_hand02_02]
16 71.020844 -0.000030 -0.000119 0.002323 -0.000334 106.381714 71.020836
17 71.020844 -0.000030 -0.000119 0.002323 -0.000334 106.381714 71.020836
[R_front_hand03_02]
16 71.020905 0.000000 0.000030 0.002323 -0.000334 106.381714 71.020905
17 71.020905 0.000000 0.000030 0.002323 -0.000334 106.381714 71.020905
[null_rope01_connect]
16 328.732483 0.000000 -0.000238 -163.255585 -71.890579 171.223953 328.732483
17 328.732483 0.000000 -0.000238 -165.783798 -69.379311 -176.722885 328.732483
[Rope1_Seg01]
16 0.000015 -0.000141 -0.000117 123.869759 82.505486 138.743073 0.000184
17 0.000016 -0.000148 -0.000125 113.017853 71.899727 131.207443 0.000194
[Rope1_Seg02]
16 139.999863 -0.000179 0.000000 3.578605 -4.154015 -6.617919 139.999863
17 139.999863 -0.000179 0.000000 4.929881 -5.028518 -11.959077 139.999863
[Rope1_Seg03]
16 139.999924 0.000060 -0.000060 3.276290 -3.653726 -5.574955 139.999924
17 139.999924 0.000060 -0.000060 4.794483 -4.050669 -9.644165 139.999924
[Rope1_Seg04]
16 139.999924 -0.000060 -0.000119 1.668250 -1.366392 -3.238883 139.999924
17 139.999924 -0.000060 -0.000119 3.788716 -2.736440 -6.844302 139.999924
[Rope1_Seg05]
16 139.999832 0.000119 -0.000060 7.861212 -9.997205 -9.214064 139.999832
17 139.999832 0.000119 -0.000060 8.701624 -10.711932 -9.107318 139.999832
[Rope1_Seg06]
16 139.999954 0.000119 -0.000060 9.384160 -14.909227 -9.734051 139.999954
17 139.999954 0.000119 -0.000060 8.517788 -14.461976 -7.568072 139.999954
[Rope1_Seg07]
16 139.999985 0.000060 0.000000 3.710098 -8.260607 -3.938218 139.999985
17 139.999985 0.000060 0.000000 3.467556 -8.043276 -3.293057 139.999985
[Rope1_Seg09]
16 121.602913 0.000119 -0.000089 -89.793175 -1.359789 0.847147 121.602913
17 121.602913 0.000119 -0.000089 -89.793175 -1.359789 0.847147 121.602913
[L_mid_hand01]
16 103.859421 1.038730 8.195221 122.214622 -62.281231 -29.682964 104.187431
17 103.859421 1.038730 8.195221 126.075401 -65.098549 -33.991913 104.187431
[L_mid_hand02]
16 105.572853 -4.139662 -10.864139 -163.055801 41.815437 -64.846191 106.211075
17 105.572853 -4.139662 -10.864139 -166.035263 42.723965 -69.273842 106.211075
[L_mid_hand03]
16 104.641464 17.579376 -3.913581 -8.059158 17.002197 68.062881 106.179977
17 104.641464 17.579376 -3.913581 -7.014418 17.452778 71.596474 106.179977
[null_rope02_connect]
16 328.732849 0.000179 -0.000119 -156.652252 51.080772 24.997072 328.732849
17 328.732849 0.000179 -0.000119 -156.970032 47.347515 20.554510 328.732849
[Rope2_Seg01]
16 0.000091 -0.000047 0.000000 -78.555008 34.628757 -1.644653 0.000102
17 0.000092 -0.000058 0.000000 -77.939911 32.443314 -4.330313 0.000109
[Rope2_Seg02]
16 139.999741 -0.000060 -0.000119 -8.902240 3.067231 6.938214 139.999756
17 139.999741 -0.000060 -0.000119 -6.645262 2.472172 4.378397 139.999756
[Rope2_Seg03]
16 140.000107 0.000030 0.000000 -12.334315 2.960730 11.250881 140.000107
17 140.000107 0.000030 0.000000 -10.132226 3.022442 7.238890 140.000107
[Rope2_Seg04]
16 139.999802 0.000000 -0.000060 -15.501478 1.249409 19.581079 139.999802
17 139.999802 0.000000 -0.000060 -15.550700 3.173449 13.594929 139.999802
[Rope2_Seg05]
16 139.999985 -0.000060 0.000119 -10.085217 -5.009767 20.751663 139.999985
17 139.999985 -0.000060 0.000119 -18.961329 -0.837827 26.915257 139.999985
[Rope2_Seg06]
16 139.999893 -0.000030 -0.000119 -1.826104 -5.193988 7.149698 139.999893
17 139.999893 -0.000030 -0.000119 -5.969936 -8.892474 16.112238 139.999893
[Rope2_Seg07]
16 139.999893 0.000060 -0.000060 -0.839718 -3.596765 4.868864 139.999893
17 139.999893 0.000060 -0.000060 -0.942920 -5.015906 5.381634 139.999893
[Rope2_Seg09]
16 121.338966 0.000089 -0.000060 33.793236 -1.359788 -0.847141 121.338966
17 121.338966 0.000089 -0.000060 33.793236 -1.359788 -0.847141 121.338966
[R_mid_hand01]
16 104.680779 11.144459 -10.335981 -32.057350 37.073116 46.635818 105.778534
17 104.680779 11.144459 -10.335981 -28.450209 39.729855 52.441807 105.778534
[R_mid_hand02]
16 104.070427 2.443552 8.231699 66.850014 -50.884758 18.890066 104.424065
17 104.070427 2.443552 8.231699 63.903580 -55.672924 22.558943 104.424065
[R_mid_hand03]
16 106.028137 -11.221827 -5.996406 -171.959641 13.662919 -56.404911 106.788818
17 106.028137 -11.221827 -5.996406 -173.263687 14.341302 -61.789295 106.788818
[spine02]
16 129.756927 0.001550 0.000119 -1.090118 -3.911241 7.705335 129.756927
17 129.756927 0.001550 0.000119 -1.043653 -3.923773 7.059196 129.756927
[spine03]
16 78.614113 0.081599 -4.899016 1.999802 3.778494 18.045614 78.766655
17 78.614113 0.081607 -4.899017 1.999015 3.780675 18.013899 78.766655
[pelvis]
16 169.435242 0.051022 0.000000 -0.070351 -0.177728 17.280682 169.435257
17 169.435242 0.051022 0.000000 -0.070270 -0.177760 17.228151 169.435257
[null_rope03_connect]
16 -1.257226 -2.466202 137.391083 -37.855587 -83.892250 37.336143 137.418976
17 -1.257226 -2.466202 137.391083 -42.266048 -85.024956 44.743401 137.418976
[null_rope04_connect]
16 -1.259640 -2.480268 -137.844437 -37.855587 -83.892250 37.336143 137.872513
17 -1.259640 -2.480268 -137.844437 -42.266048 -85.024956 44.743401 137.872513
[Rope3_Seg01]
16 -0.000029 -0.000023 0.000117 -124.452850 55.648880 -61.458725 0.000123
17 -0.000029 -0.000022 0.000125 -123.168053 53.850925 -59.991211 0.000130
[Rope3_Seg02]
16 139.999924 -0.000119 0.000060 -0.163269 -1.519045 1.992267 139.999924
17 139.999924 -0.000119 0.000060 -0.088686 -1.074982 2.248078 139.999924
[Rope3_Seg03]
16 139.999924 -0.000119 0.000119 -0.173643 -1.390490 1.809155 139.999924
17 139.999924 -0.000119 0.000119 -0.119553 -0.975627 2.035537 139.999924
[Rope3_Seg04]
16 139.999924 0.000119 0.000000 -0.176538 -1.709094 0.340637 139.999924
17 139.999924 0.000119 0.000000 -0.132330 -1.120406 0.551952 139.999924
[Rope3_Seg05]
16 139.999924 -0.000238 0.000060 -0.018065 -1.298981 0.867424 139.999924
17 139.999924 -0.000238 0.000060 -0.002254 -0.853975 1.188695 139.999924
[Rope3_Seg06]
16 139.999893 -0.000119 -0.000060 0.093972 -0.179988 4.245889 139.999893
17 139.999893 -0.000119 -0.000060 0.050456 -0.277426 4.374597 139.999893
[Rope3_Seg07]
16 139.999771 0.000060 -0.000119 -0.262491 0.713353 7.721311 139.999771
17 139.999771 0.000060 -0.000119 -0.376839 0.125072 7.375453 139.999771
[Rope3_Seg08]
16 139.999985 -0.000060 0.000000 -0.417764 0.234778 5.537229 139.999985
17 139.999985 -0.000060 0.000000 -0.419241 -0.113321 5.102798 139.999985
[Rope3_Seg09]
16 90.185997 -0.000179 -0.000060 89.793228 -1.359877 -0.847183 90.185997
17 90.185997 -0.000179 -0.000060 89.793228 -1.359877 -0.847183 90.185997
[R_rear_hand01]
16 103.366196 -6.073594 -10.757982 -169.706436 22.536156 -54.046982 104.101845
17 103.366196 -6.073594 -10.757982 -171.885513 23.373785 -59.632885 104.101845
[R_rear_hand02]
16 100.509819 12.039542 -7.992327 -24.637733 30.906170 51.254921 101.543350
17 100.509819 12.039542 -7.992327 -21.647255 32.954239 56.905464 101.543350
[R_rear_hand03]
16 101.539970 5.215704 5.435467 80.293877 -53.997543 11.741186 101.819031
17 101.539970 5.215704 5.435467 78.870155 -59.127991 13.449200 101.819031
[Rope4_Seg01]
16 0.000010 0.000023 -0.000094 22.882963 27.456501 -150.766418 0.000097
17 0.000010 0.000022 -0.000090 19.352022 28.206007 -154.550934 0.000093
[Rope4_Seg02]
16 139.999985 0.000060 0.000119 -3.636540 18.741686 -1.235543 139.999985
17 139.999985 0.000060 0.000119 -2.019875 14.578444 1.349067 139.999985
[Rope4_Seg03]
16 139.999924 0.000000 -0.000238 -0.594477 19.037407 0.212931 139.999924
17 139.999924 0.000000 -0.000238 -0.363490 18.088297 2.803674 139.999924
[Rope4_Seg04]
16 139.999985 0.000000 0.000119 1.314779 15.566400 1.279664 139.999985
17 139.999985 0.000000 0.000119 1.677038 20.025951 6.207122 139.999985
[Rope4_Seg05]
16 139.999802 -0.000060 -0.000119 1.732854 7.756398 -1.154991 139.999802
17 139.999802 -0.000060 -0.000119 2.482000 9.352201 -2.019010 139.999802
[Rope4_Seg06]
16 139.999924 0.000000 0.000060 1.984529 3.450921 -2.858595 139.999924
17 139.999924 0.000000 0.000060 3.183478 0.572742 -6.809278 139.999924
[Rope4_Seg07]
16 139.999802 0.000000 0.000000 1.889289 2.785017 -2.555187 139.999802
17 139.999802 0.000000 0.000000 1.893963 0.962153 -3.910752 139.999802
[Rope4_Seg08]
16 139.999924 0.000000 0.000119 -0.187501 2.418083 -1.461641 139.999924
17 139.999924 0.000000 0.000119 -0.458110 1.131461 -1.976403 139.999924
[Rope4_Seg09]
16 90.185791 0.000060 0.000060 -135.617828 2.228885 0.850567 90.185791
17 90.185791 0.000060 0.000060 -135.617828 2.228885 0.850567 90.185791
[L_rear_hand01]
16 101.696655 -8.392275 -7.654577 -16.606979 -35.526840 114.151619 102.329041
17 101.696655 -8.392275 -7.654577 -14.676040 -36.272415 110.857796 102.329041
[L_rear_hand02]
16 102.726799 -1.568258 5.773216 75.446785 66.761177 162.720428 102.900848
17 102.726799 -1.568258 5.773216 73.610291 69.437737 160.740738 102.900848
[L_rear_hand03]
16 104.552910 9.721220 -10.420293 -175.325211 -24.244322 -111.864204 105.519653
17 104.552910 9.721220 -10.420293 -176.571304 -24.441328 -108.830574 105.519653
